<?xml version="1.0" encoding="UTF-8" standalone="no"?>
<svg
   xmlns:dc="http://purl.org/dc/elements/1.1/"
   xmlns:cc="http://creativecommons.org/ns#"
   xmlns:rdf="http://www.w3.org/1999/02/22-rdf-syntax-ns#"
   xmlns:svg="http://www.w3.org/2000/svg"
   xmlns="http://www.w3.org/2000/svg"
   viewBox="0 0 400 400"
   height="400"
   width="400"
   xml:space="preserve"
   id="svg2"
   version="1.1"><metadata
     id="metadata8"><rdf:RDF><cc:Work
         rdf:about=""><dc:format>image/svg+xml</dc:format><dc:type
           rdf:resource="http://purl.org/dc/dcmitype/StillImage" /></cc:Work></rdf:RDF></metadata><defs
     id="defs6"><clipPath
       id="clipPath18"
       clipPathUnits="userSpaceOnUse"><path
         id="path16"
         d="M 0,0 H 960 V 540 H 0 Z" /></clipPath><clipPath
       id="clipPath22"
       clipPathUnits="userSpaceOnUse"><path
         style="clip-rule:evenodd"
         id="path20"
         d="M 0,1.2207e-4 H 960 V 540.00012 H 0 Z" /></clipPath><clipPath
       id="clipPath26"
       clipPathUnits="userSpaceOnUse"><path
         style="clip-rule:evenodd"
         id="path24"
         d="M 0,1.2207e-4 H 960 V 540.00012 H 0 Z" /></clipPath><clipPath
       id="clipPath30"
       clipPathUnits="userSpaceOnUse"><path
         style="clip-rule:evenodd"
         id="path28"
         d="M -3.0518e-5,1.2207e-4 H 959.99997 V 540.00012 H -3.0518e-5 Z" /></clipPath><clipPath
       id="clipPath34"
       clipPathUnits="userSpaceOnUse"><path
         style="clip-rule:evenodd"
         id="path32"
         d="M -3.0518e-5,2.4414e-4 H 959.99997 V 540.00024 H -3.0518e-5 Z" /></clipPath><linearGradient
       id="linearGradient44"
       spreadMethod="pad"
       gradientTransform="translate(273,114)"
       gradientUnits="userSpaceOnUse"
       y2="191.07001"
       x2="566.58002"
       y1="191.07001"
       x1="276.72"><stop
         id="stop36"
         offset="0"
         style="stop-opacity:1;stop-color:#00b050" /><stop
         id="stop38"
         offset="0.3"
         style="stop-opacity:1;stop-color:#ffffff" /><stop
         id="stop40"
         offset="0.92"
         style="stop-opacity:1;stop-color:#ffffff" /><stop
         id="stop42"
         offset="1"
         style="stop-opacity:1;stop-color:#00b050" /></linearGradient></defs><g
     transform="matrix(1.3333333,0,0,-1.3333333,0,400)"
     id="g10"><g
       transform="translate(-273,-114)"
       id="g12"><g
         id="g14" /><g
         id="g72"><g
           id="g70"
           clip-path="url(#clipPath18)"><g
             id="g50"><g
               id="g48"
               clip-path="url(#clipPath22)"><path
                 id="path46"
                 style="fill:#ffffff;fill-opacity:1;fill-rule:evenodd;stroke:none"
                 d="M 0,6.1035e-5 H 960 V 540.00006 H 0 Z" /></g></g><g
             id="g56"><g
               id="g54"
               clip-path="url(#clipPath26)"><path
                 id="path52"
                 style="fill:#00b050;fill-opacity:1;fill-rule:evenodd;stroke:none"
                 d="m 273.6,363.3 c 0,27.5 22.3,49.8 49.8,49.8 h 199.2 c 27.5,0 49.8,-22.3 49.8,-49.8 V 164.1 c 0,-27.5 -22.3,-49.8 -49.8,-49.8 H 323.4 c -27.5,0 -49.8,22.3 -49.8,49.8 z" /></g></g><g
             id="g62"><g
               id="g60"
               clip-path="url(#clipPath30)"><path
                 id="path58"
                 style="fill:#ffffff;fill-opacity:1;fill-rule:nonzero;stroke:none"
                 d="m 394.35,292.3 c -7.01,-7.74 -14.11,-13.55 -21.3,-17.46 -7.19,-3.9 -15.55,-5.85 -25.09,-5.85 -10.48,0 -18.59,3.2 -24.34,9.59 -5.74,6.4 -8.62,15.31 -8.62,26.72 0,7.74 1.39,16.03 4.18,24.88 2.78,8.85 6.99,16.8 12.63,23.85 5.63,7.05 12.39,12.5 20.27,16.37 7.87,3.86 16.26,5.8 25.14,5.8 8.75,0 15.31,-1.77 19.68,-5.31 4.37,-3.55 6.56,-9.07 6.56,-16.59 0,-12.28 -5.77,-21.5 -17.29,-27.64 -11.53,-6.14 -28.64,-9.21 -51.33,-9.21 -0.87,-4.34 -1.3,-9.04 -1.3,-14.1 0,-7.58 1.48,-13.09 4.44,-16.53 2.97,-3.43 7.81,-5.15 14.53,-5.15 6.65,0 12.66,1.45 18.05,4.34 5.38,2.89 11.07,7.33 17.07,13.33 z m -57.67,34.36 c 10.19,0.07 18.94,0.99 26.24,2.76 7.29,1.77 12.9,4.59 16.8,8.46 3.9,3.86 5.85,9.09 5.85,15.66 0,4.41 -1.03,7.86 -3.09,10.35 -2.06,2.5 -5.11,3.74 -9.16,3.74 -7.3,0 -14.32,-3.68 -21.08,-11.05 -6.76,-7.37 -11.94,-17.35 -15.56,-29.92 z m 128.81,-6.94 c -1.09,5.71 -2.21,11.2 -3.36,16.48 -1.16,5.27 -2.35,10.19 -3.58,14.74 -1.23,4.55 -2.24,7.53 -3.03,8.94 -0.8,1.41 -1.65,2.39 -2.55,2.93 -0.91,0.54 -2.04,0.81 -3.42,0.81 -1.51,0 -2.89,-0.34 -4.12,-1.03 -1.22,-0.68 -2.56,-1.88 -4.01,-3.57 -1.44,-1.7 -3.36,-4.36 -5.74,-7.97 l -7.05,4.66 c 4.56,6.87 8.93,12 13.12,15.39 4.19,3.4 9.14,5.1 14.85,5.1 2.24,0 4.21,-0.26 5.91,-0.76 1.7,-0.51 3.19,-1.28 4.5,-2.33 1.3,-1.05 2.45,-2.4 3.46,-4.07 1.02,-1.66 1.99,-3.92 2.93,-6.77 0.94,-2.86 1.83,-6.4 2.66,-10.63 0.83,-4.22 1.57,-8.61 2.22,-13.17 h 1.08 c 6.94,9.76 12.2,16.9 15.77,21.41 3.58,4.52 6.6,7.88 9.06,10.08 2.45,2.21 4.82,3.76 7.1,4.67 2.27,0.9 5.29,1.35 9.05,1.35 3.39,0 6.18,-0.43 8.34,-1.3 l -4.33,-19.62 h -7.59 c -0.43,3.03 -1.7,4.55 -3.79,4.55 -0.65,0 -1.34,-0.11 -2.06,-0.32 -0.73,-0.22 -1.61,-0.69 -2.66,-1.41 -1.05,-0.72 -2.58,-2.13 -4.61,-4.23 -2.02,-2.1 -4.3,-4.66 -6.83,-7.7 -2.52,-3.03 -5.13,-6.21 -7.8,-9.54 l -7.37,-9.21 c 1.3,-6.94 2.53,-12.93 3.68,-17.99 1.16,-5.06 2.19,-9.27 3.09,-12.63 0.91,-3.36 1.7,-6.02 2.39,-7.97 0.69,-1.95 1.43,-3.41 2.22,-4.39 0.8,-0.97 1.61,-1.66 2.44,-2.06 0.83,-0.4 1.79,-0.59 2.87,-0.59 1.95,0 3.85,0.75 5.69,2.27 1.85,1.52 4.5,4.95 7.97,10.3 l 7.05,-4.66 c -5.06,-7.52 -9.63,-12.81 -13.72,-15.88 -4.08,-3.07 -8.94,-4.61 -14.58,-4.61 -3.1,0 -5.74,0.56 -7.91,1.68 -2.17,1.12 -4.05,2.91 -5.64,5.37 -1.59,2.45 -2.99,6.28 -4.22,11.49 -2.24,9.25 -3.62,16.33 -4.12,21.24 h -1.09 c -7.66,-10.76 -13.35,-18.5 -17.07,-23.19 -3.72,-4.7 -6.79,-8.17 -9.21,-10.41 -2.42,-2.24 -4.77,-3.81 -7.05,-4.72 -2.27,-0.9 -5.29,-1.35 -9.05,-1.35 -3.4,0 -6.18,0.43 -8.35,1.3 l 4.34,19.62 h 7.59 c 0.43,-3.03 1.7,-4.55 3.79,-4.55 1.01,0 2.08,0.27 3.2,0.81 1.12,0.54 2.73,1.84 4.82,3.9 2.1,2.06 4.99,5.3 8.67,9.7 3.69,4.41 9.04,11.03 16.05,19.84 z" /></g></g><g
             id="g68"><g
               id="g66"
               clip-path="url(#clipPath34)"><path
                 id="path64"
                 style="fill:url(#linearGradient44);fill-opacity:1;fill-rule:nonzero;stroke:none"
                 d="m 281.31,206.13 2.03,-6.01 1.31,-3.85 1.31,-3.77 1.31,-3.67 1.31,-3.53 0.65,-1.7 0.66,-1.65 0.66,-1.61 0.66,-1.54 0.66,-1.49 0.66,-1.42 0.65,-1.35 0.66,-1.28 0.66,-1.19 0.65,-1.12 0.65,-1.02 0.65,-0.93 0.63,-0.82 0.62,-0.73 0.61,-0.61 0.58,-0.5 0.55,-0.38 0.5,-0.27 0.46,-0.16 -0.32,0.1 0.73,-0.17 -0.37,0.06 0.74,-0.05 -0.39,-0.01 0.74,0.08 -0.37,-0.08 0.37,0.11 -0.32,-0.12 0.37,0.17 0.12,0.1 0.18,0.16 0.23,0.22 0.27,0.3 0.3,0.37 0.32,0.43 0.33,0.49 0.35,0.55 0.36,0.61 0.36,0.66 0.76,1.48 0.76,1.62 0.78,1.77 0.79,1.9 0.8,2.01 0.81,2.09 0.81,2.17 0.81,2.22 1.65,4.52 1.64,4.52 0.83,2.21 0.83,2.17 0.83,2.09 0.83,2.01 0.83,1.91 0.84,1.79 0.84,1.67 0.84,1.52 0.45,0.73 0.44,0.66 0.44,0.63 0.46,0.59 0.46,0.54 0.49,0.5 0.52,0.46 0.55,0.4 0.6,0.36 0.65,0.28 c 0.11,0.04 0.22,0.07 0.34,0.1 l 0.38,0.09 c 0.13,0.03 0.26,0.04 0.39,0.05 l 0.38,0.02 c 0.14,0 0.28,0 0.42,-0.02 l 0.38,-0.06 c 0.14,-0.02 0.27,-0.05 0.4,-0.09 l 0.38,-0.13 c 0.11,-0.04 0.22,-0.08 0.32,-0.14 l 0.38,-0.19 0.63,-0.42 0.57,-0.48 0.51,-0.54 0.49,-0.57 0.45,-0.62 0.44,-0.66 0.42,-0.7 0.41,-0.74 0.4,-0.79 0.39,-0.82 0.39,-0.85 0.76,-1.81 0.76,-1.96 0.74,-2.07 0.74,-2.18 0.74,-2.26 0.72,-2.32 0.73,-2.37 1.43,-4.81 1.43,-4.79 0.7,-2.33 0.71,-2.27 0.7,-2.18 0.69,-2.08 0.69,-1.95 0.69,-1.81 0.67,-1.64 0.33,-0.73 0.33,-0.69 0.32,-0.64 0.32,-0.58 0.31,-0.52 0.29,-0.45 0.28,-0.38 0.26,-0.3 0.23,-0.23 0.18,-0.13 0.12,-0.06 -0.3,0.16 0.35,-0.15 -0.39,0.13 0.34,-0.08 -0.46,0.06 0.35,-0.01 -0.5,-0.04 0.35,0.07 -0.44,-0.14 0.35,0.15 -0.34,-0.18 0.35,0.22 0.1,0.11 0.17,0.2 0.22,0.29 0.25,0.38 0.28,0.45 0.29,0.53 0.3,0.61 0.31,0.67 0.32,0.73 0.32,0.78 0.33,0.84 0.66,1.84 0.66,2 0.66,2.15 0.67,2.27 0.67,2.38 0.66,2.46 0.67,2.52 1.34,5.15 0.67,2.58 0.67,2.56 0.66,2.52 0.67,2.46 0.67,2.38 0.68,2.28 0.67,2.16 0.68,2.02 0.34,0.97 0.34,0.91 0.35,0.88 0.35,0.83 0.35,0.78 0.36,0.74 0.37,0.7 0.37,0.64 0.4,0.6 0.41,0.56 0.45,0.51 0.5,0.46 0.57,0.42 c 0.1,0.07 0.22,0.13 0.33,0.19 l 0.33,0.15 c 0.15,0.06 0.3,0.11 0.45,0.15 l 0.33,0.07 c 0.18,0.04 0.36,0.06 0.54,0.05 l 0.33,-0.01 c 0.18,0 0.37,-0.03 0.55,-0.08 l 0.33,-0.09 c 0.16,-0.04 0.31,-0.11 0.46,-0.18 l 0.33,-0.18 c 0.11,-0.06 0.22,-0.13 0.33,-0.21 l 0.33,-0.26 0.55,-0.54 0.48,-0.59 0.43,-0.63 0.41,-0.68 0.38,-0.72 0.37,-0.78 0.36,-0.82 0.36,-0.88 0.34,-0.92 0.35,-0.97 0.34,-1.02 0.34,-1.06 0.34,-1.11 0.67,-2.31 0.67,-2.47 0.67,-2.59 0.66,-2.68 0.66,-2.77 0.66,-2.82 1.31,-5.72 0.65,-2.87 0.65,-2.82 0.65,-2.78 0.64,-2.69 0.65,-2.6 0.63,-2.47 0.64,-2.33 0.31,-1.09 0.31,-1.05 0.32,-1 0.31,-0.96 0.3,-0.89 0.31,-0.83 0.3,-0.77 0.29,-0.7 0.29,-0.63 0.28,-0.55 0.26,-0.47 0.25,-0.37 0.21,-0.27 0.17,-0.16 0.09,-0.05 -0.33,0.22 0.31,-0.17 -0.48,0.2 0.31,-0.09 -0.61,0.08 h 0.31 l -0.65,-0.09 0.31,0.09 -0.52,-0.23 0.31,0.19 -0.34,-0.25 0.31,0.27 0.09,0.15 0.17,0.27 0.22,0.38 0.25,0.5 0.26,0.59 0.27,0.69 0.28,0.76 0.29,0.84 0.29,0.91 0.29,0.98 0.3,1.04 0.29,1.1 0.3,1.16 0.3,1.2 0.29,1.25 0.6,2.64 0.59,2.78 0.6,2.91 0.59,2.99 0.6,3.08 1.18,6.25 0.59,3.14 0.59,3.11 0.58,3.05 0.59,2.98 0.59,2.88 0.58,2.75 0.59,2.61 0.29,1.25 0.29,1.19 0.3,1.15 0.29,1.1 0.29,1.04 0.3,0.99 0.3,0.93 0.3,0.88 0.31,0.81 0.31,0.76 0.32,0.69 0.34,0.64 0.37,0.59 0.41,0.54 0.49,0.51 c 0.1,0.1 0.21,0.19 0.34,0.27 l 0.28,0.18 c 0.17,0.11 0.35,0.2 0.54,0.26 l 0.28,0.09 c 0.24,0.08 0.49,0.11 0.75,0.11 l 0.28,-0.01 c 0.26,-0.01 0.52,-0.06 0.76,-0.16 l 0.28,-0.11 c 0.2,-0.07 0.38,-0.18 0.55,-0.3 l 0.28,-0.22 c 0.11,-0.08 0.22,-0.18 0.31,-0.29 l 0.28,-0.32 0.46,-0.64 0.39,-0.68 0.35,-0.73 0.32,-0.79 0.31,-0.85 0.3,-0.91 0.29,-0.98 0.29,-1.04 0.29,-1.1 0.28,-1.17 0.29,-1.22 0.28,-1.28 0.28,-1.33 0.27,-1.38 0.28,-1.43 0.28,-1.48 0.27,-1.51 0.55,-3.13 0.54,-3.27 0.55,-3.36 0.54,-3.43 0.54,-3.47 0.53,-3.49 0.53,-3.48 0.54,-3.44 0.52,-3.38 0.53,-3.28 0.52,-3.16 0.52,-3.01 0.26,-1.44 0.26,-1.39 0.25,-1.34 0.26,-1.29 0.26,-1.22 0.25,-1.17 0.25,-1.09 0.25,-1.03 0.25,-0.94 0.24,-0.87 0.24,-0.78 0.24,-0.69 0.22,-0.59 0.21,-0.47 0.19,-0.36 0.15,-0.21 0.07,-0.05 -0.34,0.32 0.25,-0.2 -0.62,0.34 0.25,-0.09 -0.92,0.13 0.24,0.02 -0.89,-0.26 0.25,0.13 -0.53,-0.4 0.25,0.25 -0.27,-0.31 0.25,0.36 0.11,0.24 0.17,0.42 0.2,0.56 0.22,0.68 0.22,0.8 0.23,0.9 0.23,1 0.23,1.08 0.24,1.17 0.23,1.25 0.24,1.32 0.24,1.4 0.23,1.45 0.24,1.52 0.23,1.58 0.24,1.63 0.23,1.68 0.47,3.49 0.47,3.63 0.47,3.75 0.46,3.83 0.46,3.89 0.46,3.92 0.46,3.9 0.46,3.88 0.46,3.8 0.45,3.71 0.46,3.57 0.22,1.74 0.23,1.69 0.23,1.64 0.22,1.59 0.23,1.54 0.23,1.48 0.22,1.42 0.23,1.36 0.22,1.28 0.23,1.22 0.23,1.14 0.23,1.07 0.23,0.98 0.23,0.91 0.24,0.83 0.25,0.74 0.26,0.68 0.29,0.61 0.34,0.58 c 0.08,0.11 0.16,0.23 0.26,0.33 l 0.22,0.24 c 0.16,0.17 0.35,0.32 0.56,0.44 l 0.22,0.12 c 0.33,0.18 0.7,0.28 1.08,0.28 h 0.22 c 0.39,0 0.78,-0.1 1.13,-0.3 l 0.22,-0.13 c 0.22,-0.12 0.42,-0.28 0.58,-0.48 l 0.22,-0.25 c 0.09,-0.11 0.17,-0.22 0.24,-0.34 l 0.22,-0.38 0.34,-0.72 0.28,-0.77 0.25,-0.83 0.24,-0.91 0.24,-0.99 0.23,-1.09 0.23,-1.16 0.22,-1.26 0.22,-1.33 0.23,-1.41 0.22,-1.48 0.22,-1.56 0.22,-1.62 0.22,-1.69 0.22,-1.74 0.21,-1.81 0.22,-1.85 0.22,-1.9 0.22,-1.94 0.43,-4 0.43,-4.13 0.43,-4.21 0.42,-4.27 0.43,-4.3 0.42,-4.29 0.42,-4.24 0.41,-4.16 0.42,-4.05 0.41,-3.91 0.2,-1.89 0.21,-1.84 0.2,-1.78 0.2,-1.73 0.2,-1.66 0.2,-1.6 0.2,-1.53 0.2,-1.45 0.19,-1.38 0.2,-1.28 0.19,-1.2 0.19,-1.1 0.19,-1 0.19,-0.9 0.18,-0.78 0.17,-0.66 0.17,-0.52 0.14,-0.36 0.1,-0.17 -0.2,0.33 0.18,-0.25 -0.56,0.53 0.19,-0.12 -1.34,0.37 0.18,0.01 -1.3,-0.49 0.18,0.15 -0.49,-0.55 0.18,0.29 -0.17,-0.32 0.18,0.42 0.11,0.37 0.15,0.56 0.16,0.71 0.16,0.86 0.17,0.99 0.17,1.11 0.17,1.22 0.17,1.32 0.17,1.42 0.17,1.51 0.17,1.61 0.17,1.68 0.17,1.76 0.17,1.84 0.16,1.9 0.17,1.97 0.17,2.03 0.16,2.08 0.17,2.13 0.32,4.38 0.33,4.53 0.32,4.63 0.32,4.7 0.32,4.73 0.31,4.72 0.32,4.68 0.31,4.6 0.31,4.48 0.16,2.18 0.15,2.14 0.16,2.1 0.15,2.04 0.16,1.99 0.15,1.92 0.15,1.86 0.16,1.79 0.15,1.71 0.16,1.64 0.15,1.55 0.15,1.46 0.16,1.38 0.15,1.27 0.16,1.18 0.16,1.08 0.16,0.97 0.16,0.87 0.16,0.77 0.18,0.67 0.2,0.59 0.27,0.58 c 0.1,0.19 0.22,0.37 0.37,0.52 l 0.15,0.17 c 0.36,0.38 0.85,0.63 1.37,0.69 l 0.16,0.02 c 0.63,0.08 1.26,-0.12 1.74,-0.53 l 0.16,-0.14 c 0.2,-0.18 0.37,-0.39 0.5,-0.63 l 0.16,-0.29 c 0.05,-0.1 0.1,-0.2 0.14,-0.31 l 0.15,-0.44 0.21,-0.74 0.17,-0.83 0.17,-0.91 0.17,-1.03 0.15,-1.14 0.16,-1.24 0.16,-1.36 0.15,-1.45 0.16,-1.56 0.15,-1.65 0.16,-1.74 0.15,-1.83 0.15,-1.91 0.16,-1.99 0.15,-2.06 0.15,-2.12 0.16,-2.19 0.15,-2.24 0.15,-2.3 0.15,-2.35 0.15,-2.38 0.3,-4.88 0.3,-4.99 0.3,-5.06 0.3,-5.09 0.29,-5.08 0.29,-5.03 0.29,-4.94 0.29,-4.81 0.15,-2.35 0.14,-2.29 0.14,-2.25 0.14,-2.18 0.14,-2.12 0.14,-2.06 0.14,-1.98 0.14,-1.9 0.14,-1.82 0.13,-1.74 0.14,-1.63 0.13,-1.54 0.14,-1.44 0.13,-1.32 0.13,-1.21 0.13,-1.09 0.13,-0.95 0.12,-0.82 0.12,-0.67 0.11,-0.51 0.1,-0.31 0.03,-0.04 -0.36,0.58 0.13,-0.15 -1.88,0.79 0.12,0.01 -1.66,-0.94 0.12,0.17 -0.28,-0.54 0.12,0.34 0.06,0.27 0.09,0.53 0.11,0.72 0.11,0.9 0.11,1.05 0.12,1.19 0.11,1.32 0.12,1.45 0.11,1.57 0.11,1.68 0.12,1.79 0.11,1.89 0.11,1.99 0.11,2.08 0.11,2.17 0.11,2.24 0.11,2.32 0.11,2.39 0.11,2.45 0.1,2.51 0.11,2.56 0.1,2.61 0.21,5.33 0.21,5.46 0.21,5.54 0.2,5.57 0.2,5.57 0.2,5.52 0.2,5.43 0.2,5.29 0.1,2.58 0.09,2.53 0.1,2.47 0.1,2.42 0.1,2.35 0.09,2.28 0.1,2.2 0.1,2.12 0.09,2.03 0.1,1.94 0.09,1.84 0.1,1.74 0.1,1.62 0.09,1.52 0.1,1.4 0.1,1.28 0.09,1.15 0.1,1.01 0.1,0.89 0.1,0.76 0.11,0.63 0.12,0.54 c 0.03,0.11 0.07,0.23 0.11,0.33 l 0.1,0.23 c 0.17,0.42 0.47,0.78 0.85,1.03 l 0.1,0.06 c 0.94,0.61 2.18,0.44 2.92,-0.41 l 0.09,-0.11 c 0.19,-0.21 0.34,-0.47 0.43,-0.74 l 0.1,-0.28 0.17,-0.69 0.12,-0.72 0.1,-0.82 0.1,-0.94 0.1,-1.06 0.1,-1.19 0.09,-1.32 0.1,-1.44 0.1,-1.55 0.09,-1.67 0.1,-1.77 0.09,-1.88 0.1,-1.97 0.09,-2.07 0.09,-2.15 0.1,-2.23 0.09,-2.31 0.09,-2.38 0.1,-2.45 0.09,-2.51 0.09,-2.56 0.09,-2.62 0.1,-2.65 0.09,-2.7 0.18,-5.5 0.18,-5.58 0.18,-5.64 0.18,-5.65 0.17,-5.62 0.18,-5.54 0.17,-5.43 0.08,-2.65 0.09,-2.61 0.08,-2.56 0.08,-2.5 0.09,-2.44 0.08,-2.38 0.08,-2.3 0.08,-2.23 0.08,-2.14 0.08,-2.05 0.08,-1.96 0.08,-1.86 0.08,-1.76 0.08,-1.65 0.07,-1.53 0.08,-1.41 0.07,-1.28 0.08,-1.15 0.07,-1.02 0.07,-0.86 0.07,-0.71 0.06,-0.53 0.06,-0.35 0.03,-0.07 -0.25,0.6 0.07,-0.11 -2.83,0.9 0.07,0.03 -1.2,-1.24 0.07,0.17 -0.11,-0.35 0.07,0.3 0.04,0.29 0.05,0.49 0.06,0.63 0.06,0.77 0.05,0.89 0.06,1.01 0.06,1.11 0.06,1.22 0.05,1.31 0.06,1.41 0.05,1.49 0.06,1.58 0.05,1.65 0.05,1.73 0.05,1.8 0.05,1.86 0.05,1.93 0.05,1.98 0.05,2.03 0.05,2.08 0.1,4.28 0.09,4.41 0.1,4.51 0.09,4.58 0.19,9.2 0.09,4.55 0.09,4.48 0.09,4.36 0.05,2.13 0.04,2.08 0.05,2.04 0.05,1.99 0.05,1.94 0.04,1.87 0.05,1.81 0.05,1.75 0.05,1.67 0.05,1.59 0.05,1.52 0.05,1.42 0.05,1.34 0.05,1.25 0.05,1.15 0.06,1.04 0.05,0.94 0.06,0.84 0.05,0.72 0.06,0.62 0.07,0.51 0.07,0.44 0.11,0.42 c 0.06,0.19 0.14,0.37 0.24,0.53 l 0.05,0.1 c 0.43,0.71 1.21,1.13 2.04,1.09 h 0.06 c 0.75,-0.04 1.44,-0.45 1.83,-1.11 l 0.06,-0.1 c 0.09,-0.15 0.16,-0.31 0.21,-0.48 l 0.06,-0.2 0.11,-0.48 0.08,-0.47 0.07,-0.52 0.06,-0.58 0.06,-0.64 0.07,-0.72 0.06,-0.78 0.06,-0.84 0.06,-0.91 0.06,-0.97 0.06,-1.02 0.06,-1.08 0.06,-1.14 0.07,-1.18 0.06,-1.24 0.12,-2.59 0.13,-2.74 0.12,-2.87 0.13,-2.97 0.12,-3.05 0.13,-3.11 0.26,-6.28 0.13,-3.12 0.13,-3.08 0.13,-3.01 0.13,-2.92 0.13,-2.8 0.13,-2.65 0.07,-1.27 0.06,-1.22 0.07,-1.17 0.07,-1.12 0.07,-1.07 0.06,-1.01 0.07,-0.95 0.07,-0.88 0.06,-0.82 0.07,-0.74 0.07,-0.66 0.06,-0.59 0.07,-0.5 0.06,-0.4 0.05,-0.29 0.05,-0.16 0.01,-0.02 -0.04,0.13 -0.3,0.46 0.07,-0.08 -0.96,0.66 0.07,-0.02 -1.63,-0.05 0.07,0.03 -0.83,-0.61 0.07,0.09 -0.27,-0.41 0.07,0.14 -0.03,-0.05 0.02,0.09 0.04,0.18 0.06,0.26 0.07,0.32 0.14,0.82 0.15,0.97 0.15,1.12 0.15,1.27 0.16,1.37 0.15,1.48 0.16,1.56 0.16,1.64 0.16,1.68 0.16,1.73 0.31,3.52 0.32,3.49 0.15,1.71 0.16,1.66 0.15,1.6 0.15,1.53 0.15,1.44 0.15,1.33 0.15,1.22 0.14,1.1 0.15,0.96 0.14,0.81 0.09,0.38 0.08,0.34 0.09,0.32 0.12,0.33 c 0.04,0.11 0.09,0.22 0.16,0.32 l 0.12,0.22 c 0.16,0.27 0.37,0.5 0.62,0.69 l 0.13,0.09 c 0.53,0.39 1.21,0.52 1.85,0.37 l 0.12,-0.03 c 0.46,-0.12 0.88,-0.37 1.19,-0.74 l 0.12,-0.14 c 0.12,-0.15 0.23,-0.31 0.31,-0.48 l 0.12,-0.25 0.22,-0.59 0.15,-0.58 0.14,-0.6 0.12,-0.65 0.11,-0.7 0.12,-0.74 0.1,-0.78 0.21,-1.67 0.21,-1.77 0.2,-1.81 0.19,-1.79 0.2,-1.71 0.09,-0.8 0.1,-0.75 0.09,-0.7 0.09,-0.64 0.09,-0.57 0.09,-0.48 0.08,-0.38 0.07,-0.25 0.04,-0.08 -0.18,0.39 0.1,-0.17 -0.58,0.64 0.1,-0.07 -1.28,0.45 h 0.09 l -1.33,-0.38 0.1,0.06 -0.56,-0.53 0.09,0.12 -0.2,-0.33 0.09,0.18 v 0.03 l 0.04,0.15 0.06,0.24 0.15,0.69 0.16,0.83 0.16,0.95 0.17,1.02 0.17,1.07 0.18,1.06 0.18,1.03 0.2,0.97 0.21,0.89 0.13,0.44 0.13,0.4 0.16,0.39 0.19,0.4 c 0.06,0.1 0.12,0.2 0.19,0.29 l 0.11,0.15 c 0.12,0.16 0.26,0.31 0.41,0.43 l 0.12,0.09 c 0.22,0.17 0.47,0.31 0.74,0.39 l 0.12,0.03 c 0.27,0.08 0.54,0.11 0.82,0.09 l 0.12,-0.01 c 0.33,-0.02 0.64,-0.12 0.93,-0.28 l 0.25,-0.14 c 0.21,-0.11 0.39,-0.26 0.56,-0.44 l 0.26,-0.28 c 0.08,-0.09 0.15,-0.18 0.22,-0.28 l 0.27,-0.41 0.39,-0.67 0.34,-0.69 0.32,-0.71 0.31,-0.71 0.6,-1.39 0.28,-0.62 0.27,-0.55 0.23,-0.43 0.19,-0.27 0.07,-0.06 -0.48,0.42 0.25,-0.16 -1.01,0.35 0.24,-0.02 -1.02,-0.14 0.22,0.09 -0.63,-0.38 0.22,0.18 -0.32,-0.31 0.21,0.26 0.05,0.11 0.12,0.24 0.34,0.75 0.37,0.86 0.23,0.47 0.24,0.47 0.28,0.47 0.37,0.48 c 0.09,0.12 0.2,0.23 0.31,0.32 l 0.22,0.19 c 0.19,0.16 0.41,0.29 0.64,0.37 l 0.22,0.09 c 0.28,0.11 0.58,0.16 0.88,0.15 l 0.23,-0.01 c 0.23,0 0.46,-0.04 0.67,-0.12 l 0.24,-0.08 c 0.15,-0.05 0.3,-0.12 0.43,-0.2 l 0.25,-0.15 0.51,-0.39 0.41,-0.38 0.35,-0.39 0.59,-0.71 0.55,-0.68 0.45,-0.51 0.13,-0.11 0.1,-0.06 -0.27,0.18 0.25,-0.15 -0.45,0.2 0.25,-0.08 -0.56,0.1 0.24,-0.01 -0.48,-0.03 0.23,0.04 -0.4,-0.1 0.23,0.08 -0.3,-0.13 0.23,0.12 -0.27,-0.17 0.45,0.33 0.27,0.26 0.42,0.4 0.55,0.46 c 0.08,0.07 0.17,0.14 0.26,0.19 l 0.48,0.3 c 0.12,0.07 0.24,0.13 0.37,0.18 l 0.24,0.09 c 0.12,0.05 0.24,0.08 0.36,0.11 l 0.25,0.05 c 0.17,0.04 0.35,0.05 0.52,0.05 l 0.53,-0.02 c 0.15,0 0.3,-0.02 0.45,-0.06 l 0.55,-0.13 0.84,-0.28 0.71,-0.31 0.6,-0.27 0.5,-0.2 0.35,-0.09 -0.38,0.08 0.51,-0.07 h -0.56 l 0.46,0.06 -0.49,-0.12 0.41,0.15 -0.32,-0.14 0.38,0.21 0.23,0.15 0.39,0.26 0.56,0.31 c 0.11,0.05 0.22,0.1 0.33,0.14 l 0.44,0.15 c 0.16,0.05 0.31,0.09 0.47,0.1 l 0.5,0.06 c 0.16,0.02 0.32,0.02 0.47,0.01 l 0.58,-0.06 0.92,-0.19 0.84,-0.25 0.77,-0.26 0.7,-0.25 0.63,-0.19 0.5,-0.12 0.3,-0.01 -0.42,0.01 0.5,0.03 -0.4,-0.07 0.44,0.12 -0.31,-0.11 0.39,0.17 0.21,0.12 0.77,0.39 c 0.1,0.05 0.2,0.09 0.3,0.13 l 0.41,0.14 c 0.13,0.04 0.25,0.07 0.38,0.09 l 0.46,0.07 c 0.13,0.02 0.26,0.03 0.39,0.02 l 0.51,-0.01 0.8,-0.09 1.33,-0.29 0.61,-0.15 0.5,-0.09 0.39,-0.04 0.26,0.01 -0.39,-0.03 0.5,0.09 -0.32,-0.09 0.49,0.17 0.28,0.14 0.37,0.19 0.46,0.23 0.54,0.24 0.66,0.23 c 0.14,0.04 0.28,0.07 0.41,0.09 l 0.43,0.05 c 0.2,0.03 0.4,0.02 0.59,0 l 0.4,-0.06 c 0.18,-0.03 0.36,-0.08 0.53,-0.14 l 0.37,-0.15 c 0.11,-0.05 0.22,-0.1 0.32,-0.17 l 0.35,-0.21 0.48,-0.33 0.34,-0.24 0.2,-0.11 -0.32,0.15 0.38,-0.15 -0.52,0.14 0.42,-0.06 -0.57,0.01 0.46,0.05 -0.38,-0.08 0.49,0.15 0.32,0.14 0.44,0.2 0.54,0.24 0.62,0.25 0.71,0.23 c 0.11,0.03 0.23,0.05 0.34,0.07 l 0.5,0.07 c 0.16,0.02 0.32,0.02 0.48,0.01 l 0.47,-0.04 c 0.14,-0.01 0.28,-0.03 0.42,-0.07 l 0.44,-0.12 0.69,-0.27 0.54,-0.25 0.43,-0.2 0.32,-0.12 0.23,-0.05 -0.36,0.06 0.55,-0.05 0.31,0.04 0.48,0.06 1.21,0.22 1.33,0.33 3.61,0.98 1.18,-4.35 -3.73,-1 -1.58,-0.38 -1.53,-0.28 -0.79,-0.08 -0.89,-0.02 -0.55,0.05 c -0.12,0.01 -0.24,0.03 -0.36,0.06 l -0.76,0.22 -0.6,0.24 -0.45,0.21 -0.31,0.16 -0.16,0.08 -0.44,0.12 0.42,-0.07 -0.47,0.04 0.48,0.01 -0.5,-0.07 0.34,0.07 -0.33,-0.08 -0.44,-0.18 -0.53,-0.24 -0.61,-0.27 -0.72,-0.28 -0.49,-0.15 c -0.12,-0.03 -0.25,-0.06 -0.37,-0.08 l -0.46,-0.05 c -0.19,-0.02 -0.38,-0.02 -0.57,0 l -0.42,0.06 c -0.18,0.02 -0.35,0.07 -0.52,0.13 l -0.38,0.15 c -0.12,0.05 -0.23,0.1 -0.33,0.16 l -0.51,0.31 -0.35,0.25 -0.21,0.16 -0.35,0.21 0.32,-0.16 -0.37,0.15 0.53,-0.15 -0.39,0.06 h 0.59 l -0.42,-0.06 0.41,0.09 -0.21,-0.05 -0.34,-0.15 -0.46,-0.23 -0.57,-0.28 -0.68,-0.3 -0.49,-0.16 c -0.11,-0.04 -0.22,-0.07 -0.33,-0.08 l -0.5,-0.09 c -0.13,-0.03 -0.26,-0.04 -0.39,-0.04 l -0.8,0.02 -0.72,0.09 -0.66,0.13 -0.56,0.13 -0.97,0.23 -0.28,0.05 -0.51,0.02 0.39,0.02 -0.46,-0.07 0.38,0.09 -0.41,-0.14 0.31,0.13 -0.74,-0.37 -0.55,-0.28 -0.4,-0.17 c -0.1,-0.04 -0.2,-0.07 -0.31,-0.1 l -0.44,-0.11 c -0.13,-0.04 -0.27,-0.06 -0.4,-0.07 l -0.5,-0.03 c -0.14,-0.01 -0.28,-0.01 -0.42,0.01 l -0.84,0.11 -0.78,0.2 -0.74,0.23 -0.69,0.24 -0.64,0.21 -0.53,0.17 -0.35,0.1 -0.57,0.06 h 0.47 l -0.49,-0.06 0.47,0.11 -0.44,-0.15 0.33,0.14 -0.24,-0.11 -0.36,-0.24 -0.51,-0.33 -0.39,-0.21 c -0.1,-0.06 -0.21,-0.1 -0.32,-0.15 l -0.41,-0.15 c -0.16,-0.05 -0.32,-0.09 -0.49,-0.11 l -0.46,-0.06 c -0.18,-0.02 -0.37,-0.02 -0.55,0 l -0.51,0.06 c -0.13,0.02 -0.26,0.04 -0.38,0.08 l -0.73,0.23 -0.64,0.26 -0.56,0.25 -0.46,0.21 -0.32,0.13 -0.56,0.13 0.45,-0.06 -0.53,0.02 0.52,0.04 -0.25,-0.05 0.36,0.11 -0.25,-0.1 0.37,0.19 -0.47,-0.3 0.26,0.19 -0.36,-0.3 -0.48,-0.44 -0.62,-0.55 -0.45,-0.33 c -0.09,-0.07 -0.18,-0.12 -0.27,-0.17 l -0.23,-0.13 c -0.1,-0.05 -0.2,-0.09 -0.3,-0.13 l -0.23,-0.08 c -0.13,-0.05 -0.26,-0.08 -0.4,-0.11 l -0.24,-0.04 c -0.16,-0.02 -0.32,-0.03 -0.48,-0.02 l -0.24,0.01 c -0.19,0.01 -0.38,0.05 -0.56,0.1 l -0.25,0.08 c -0.15,0.05 -0.3,0.12 -0.44,0.2 l -0.25,0.14 c -0.1,0.06 -0.19,0.12 -0.27,0.18 l -0.42,0.35 -0.39,0.38 -0.59,0.67 -0.51,0.64 -0.45,0.55 -0.17,0.19 -0.1,0.11 0.01,0.03 -0.25,0.14 0.43,-0.2 -0.24,0.09 0.66,-0.12 h -0.23 l 0.87,0.15 -0.23,-0.09 0.64,0.38 -0.22,-0.18 0.32,0.32 -0.06,-0.05 -0.12,-0.19 -0.16,-0.29 -0.17,-0.36 -0.4,-0.92 -0.45,-0.98 -0.28,-0.52 -0.36,-0.55 -0.21,-0.26 c -0.09,-0.12 -0.2,-0.23 -0.31,-0.32 l -0.22,-0.19 c -0.19,-0.16 -0.41,-0.28 -0.64,-0.37 l -0.23,-0.09 c -0.32,-0.12 -0.67,-0.17 -1.02,-0.14 l -0.24,0.02 c -0.36,0.04 -0.7,0.16 -1,0.35 l -0.25,0.16 c -0.18,0.12 -0.35,0.26 -0.49,0.42 l -0.45,0.56 -0.36,0.58 -0.33,0.61 -0.31,0.65 -0.31,0.69 -0.59,1.37 -0.28,0.65 -0.27,0.59 -0.24,0.49 -0.18,0.35 -0.28,0.41 0.22,-0.28 -0.27,0.29 0.56,-0.44 -0.26,0.14 0.93,-0.27 h -0.12 l 0.82,0.09 -0.12,-0.03 0.74,0.39 -0.11,-0.09 0.41,0.42 -0.11,-0.15 0.19,0.29 -0.02,-0.01 -0.06,-0.12 -0.07,-0.21 -0.07,-0.25 -0.18,-0.72 -0.18,-0.87 -0.17,-0.98 -0.18,-1.04 -0.17,-1.07 -0.17,-1.06 -0.18,-1.03 -0.18,-0.97 -0.2,-0.86 -0.11,-0.42 -0.13,-0.41 -0.18,-0.44 -0.09,-0.18 c -0.06,-0.12 -0.13,-0.23 -0.2,-0.34 l -0.1,-0.12 c -0.15,-0.21 -0.34,-0.39 -0.55,-0.53 l -0.1,-0.07 c -0.39,-0.26 -0.85,-0.39 -1.33,-0.38 h -0.09 c -0.47,0.02 -0.92,0.18 -1.29,0.46 l -0.09,0.07 c -0.23,0.18 -0.43,0.4 -0.58,0.64 l -0.09,0.17 c -0.08,0.12 -0.14,0.25 -0.19,0.38 l -0.15,0.46 -0.13,0.47 -0.11,0.51 -0.1,0.58 -0.1,0.63 -0.1,0.69 -0.1,0.74 -0.1,0.78 -0.1,0.83 -0.19,1.72 -0.19,1.78 -0.2,1.79 -0.2,1.73 -0.2,1.61 -0.1,0.73 -0.1,0.68 -0.1,0.6 -0.1,0.52 -0.09,0.42 -0.07,0.28 -0.01,0.09 -0.12,0.25 0.31,-0.48 -0.12,0.14 1.19,-0.74 -0.12,0.03 1.85,0.37 -0.12,-0.09 0.62,0.69 -0.12,-0.22 0.15,0.33 -0.01,-0.01 -0.04,-0.12 -0.04,-0.19 -0.06,-0.24 -0.12,-0.69 -0.14,-0.87 -0.13,-1.04 -0.15,-1.18 -0.14,-1.31 -0.15,-1.41 -0.15,-1.51 -0.15,-1.59 -0.15,-1.66 -0.16,-1.7 -0.31,-3.5 -0.32,-3.52 -0.16,-1.74 -0.16,-1.7 -0.16,-1.65 -0.16,-1.58 -0.16,-1.51 -0.16,-1.42 -0.16,-1.31 -0.17,-1.21 -0.16,-1.07 -0.16,-0.93 -0.09,-0.43 -0.09,-0.4 -0.11,-0.39 -0.13,-0.39 -0.18,-0.42 -0.07,-0.14 c -0.08,-0.14 -0.17,-0.28 -0.28,-0.4 l -0.07,-0.09 c -0.23,-0.26 -0.51,-0.47 -0.83,-0.61 l -0.08,-0.03 c -0.51,-0.22 -1.1,-0.23 -1.63,-0.04 l -0.07,0.02 c -0.37,0.13 -0.7,0.36 -0.96,0.66 l -0.07,0.09 c -0.12,0.14 -0.22,0.29 -0.31,0.46 l -0.18,0.41 -0.12,0.39 -0.1,0.41 -0.08,0.44 -0.08,0.51 -0.07,0.57 -0.07,0.64 -0.07,0.71 -0.07,0.78 -0.07,0.84 -0.07,0.9 -0.07,0.97 -0.07,1.03 -0.06,1.08 -0.07,1.13 -0.07,1.19 -0.07,1.23 -0.06,1.27 -0.14,2.67 -0.13,2.81 -0.13,2.93 -0.13,3.01 -0.13,3.08 -0.13,3.13 -0.26,6.27 -0.12,3.11 -0.13,3.05 -0.12,2.97 -0.13,2.86 -0.12,2.73 -0.13,2.58 -0.06,1.22 -0.06,1.18 -0.06,1.12 -0.06,1.07 -0.06,1.01 -0.06,0.95 -0.06,0.89 -0.06,0.81 -0.06,0.74 -0.05,0.67 -0.06,0.59 -0.06,0.49 -0.05,0.39 -0.04,0.27 v 0.08 l -0.06,0.19 0.21,-0.48 -0.06,0.1 1.84,-1.11 -0.06,0.01 2.03,1.08 -0.06,-0.09 0.24,0.53 -0.01,0.03 -0.04,-0.2 -0.05,-0.39 -0.05,-0.53 -0.05,-0.67 -0.06,-0.8 -0.05,-0.91 -0.05,-1.02 -0.05,-1.13 -0.05,-1.23 -0.05,-1.32 -0.05,-1.42 -0.05,-1.51 -0.05,-1.58 -0.05,-1.67 -0.05,-1.74 -0.05,-1.8 -0.05,-1.87 -0.04,-1.93 -0.05,-1.99 -0.05,-2.04 -0.04,-2.08 -0.05,-2.13 -0.09,-4.35 -0.09,-4.48 -0.09,-4.55 -0.19,-9.2 -0.09,-4.58 -0.1,-4.52 -0.09,-4.42 -0.1,-4.28 -0.05,-2.08 -0.05,-2.04 -0.05,-1.98 -0.05,-1.93 -0.05,-1.87 -0.05,-1.8 -0.05,-1.74 -0.06,-1.67 -0.05,-1.58 -0.06,-1.51 -0.05,-1.42 -0.06,-1.33 -0.06,-1.24 -0.06,-1.14 -0.06,-1.04 -0.06,-0.94 -0.06,-0.83 -0.07,-0.73 -0.07,-0.64 -0.09,-0.58 -0.07,-0.31 c -0.02,-0.12 -0.06,-0.23 -0.1,-0.35 l -0.07,-0.17 c -0.22,-0.55 -0.65,-1 -1.19,-1.24 l -0.07,-0.03 c -1.04,-0.45 -2.25,-0.06 -2.83,0.91 l -0.07,0.11 c -0.11,0.19 -0.19,0.39 -0.25,0.6 l -0.11,0.47 -0.08,0.52 -0.08,0.65 -0.08,0.77 -0.07,0.91 -0.08,1.05 -0.07,1.17 -0.08,1.31 -0.07,1.43 -0.08,1.54 -0.08,1.66 -0.08,1.77 -0.07,1.87 -0.08,1.96 -0.08,2.06 -0.08,2.15 -0.09,2.23 -0.08,2.31 -0.08,2.37 -0.08,2.45 -0.09,2.5 -0.08,2.56 -0.09,2.61 -0.08,2.66 -0.17,5.43 -0.18,5.54 -0.17,5.61 -0.18,5.65 -0.18,5.64 -0.18,5.59 -0.18,5.48 -0.09,2.7 -0.09,2.65 -0.09,2.61 -0.1,2.56 -0.09,2.51 -0.09,2.44 -0.1,2.38 -0.09,2.3 -0.09,2.22 -0.1,2.15 -0.09,2.05 -0.09,1.96 -0.1,1.87 -0.09,1.75 -0.1,1.65 -0.09,1.53 -0.09,1.41 -0.1,1.28 -0.09,1.15 -0.09,1 -0.09,0.84 -0.09,0.68 -0.07,0.47 -0.02,0.18 -0.1,0.28 0.43,-0.74 -0.09,0.11 2.92,-0.41 -0.1,-0.06 0.86,1.02 -0.1,-0.23 0.11,0.33 -0.07,-0.24 -0.08,-0.48 -0.09,-0.65 -0.09,-0.81 -0.09,-0.97 -0.1,-1.11 -0.09,-1.25 -0.1,-1.37 -0.09,-1.5 -0.1,-1.61 -0.09,-1.73 -0.1,-1.83 -0.09,-1.93 -0.1,-2.02 -0.09,-2.11 -0.1,-2.19 -0.1,-2.28 -0.09,-2.34 -0.1,-2.41 -0.1,-2.47 -0.1,-2.53 -0.1,-2.58 -0.19,-5.29 -0.2,-5.42 -0.2,-5.52 -0.2,-5.57 -0.21,-5.58 -0.2,-5.54 -0.21,-5.47 -0.21,-5.34 -0.11,-2.61 -0.1,-2.57 -0.11,-2.51 -0.11,-2.46 -0.11,-2.39 -0.1,-2.33 -0.11,-2.25 -0.12,-2.18 -0.11,-2.09 -0.11,-2 -0.11,-1.91 -0.12,-1.81 -0.11,-1.71 -0.12,-1.6 -0.11,-1.48 -0.12,-1.37 -0.12,-1.24 -0.13,-1.12 -0.12,-1 -0.14,-0.88 -0.14,-0.78 -0.2,-0.73 -0.12,-0.34 c -0.07,-0.19 -0.16,-0.37 -0.28,-0.54 l -0.13,-0.17 c -0.38,-0.55 -0.99,-0.89 -1.66,-0.94 l -0.13,-0.01 c -0.71,-0.05 -1.41,0.24 -1.88,0.79 l -0.12,0.14 c -0.15,0.18 -0.27,0.38 -0.36,0.59 l -0.22,0.56 -0.16,0.58 -0.15,0.68 -0.14,0.78 -0.13,0.9 -0.14,1.02 -0.13,1.13 -0.14,1.25 -0.13,1.36 -0.14,1.45 -0.14,1.56 -0.13,1.66 -0.14,1.75 -0.14,1.83 -0.14,1.91 -0.14,2 -0.14,2.06 -0.14,2.13 -0.14,2.19 -0.14,2.25 -0.15,2.3 -0.14,2.35 -0.29,4.81 -0.29,4.94 -0.29,5.04 -0.3,5.08 -0.29,5.08 -0.3,5.06 -0.3,4.98 -0.3,4.87 -0.15,2.38 -0.15,2.34 -0.15,2.29 -0.15,2.24 -0.15,2.18 -0.16,2.11 -0.15,2.05 -0.15,1.97 -0.15,1.89 -0.15,1.81 -0.16,1.72 -0.15,1.62 -0.15,1.53 -0.15,1.42 -0.15,1.3 -0.15,1.19 -0.15,1.06 -0.15,0.92 -0.13,0.78 -0.13,0.61 -0.1,0.4 -0.16,0.44 0.14,-0.32 -0.15,0.29 0.5,-0.63 -0.15,0.13 1.75,-0.54 -0.15,-0.01 1.36,0.69 -0.15,-0.16 0.37,0.52 -0.04,-0.03 -0.1,-0.28 -0.13,-0.47 -0.14,-0.63 -0.14,-0.76 -0.15,-0.9 -0.15,-1.02 -0.15,-1.13 -0.15,-1.24 -0.15,-1.34 -0.15,-1.44 -0.15,-1.53 -0.16,-1.61 -0.15,-1.7 -0.15,-1.77 -0.15,-1.85 -0.16,-1.91 -0.15,-1.98 -0.15,-2.03 -0.16,-2.09 -0.15,-2.14 -0.16,-2.18 -0.31,-4.47 -0.31,-4.59 -0.32,-4.68 -0.31,-4.72 -0.32,-4.73 -0.32,-4.71 -0.32,-4.64 -0.33,-4.54 -0.33,-4.4 -0.16,-2.14 -0.17,-2.09 -0.16,-2.04 -0.17,-1.98 -0.17,-1.92 -0.17,-1.85 -0.17,-1.79 -0.17,-1.71 -0.18,-1.63 -0.17,-1.55 -0.18,-1.46 -0.17,-1.37 -0.18,-1.28 -0.19,-1.18 -0.18,-1.08 -0.19,-0.98 -0.2,-0.89 -0.22,-0.81 -0.25,-0.75 -0.18,-0.42 c -0.05,-0.11 -0.11,-0.22 -0.17,-0.32 l -0.19,-0.29 c -0.13,-0.21 -0.3,-0.39 -0.49,-0.55 l -0.18,-0.14 c -0.38,-0.3 -0.83,-0.47 -1.31,-0.5 h -0.19 c -0.47,-0.02 -0.94,0.11 -1.34,0.37 l -0.19,0.13 c -0.21,0.14 -0.4,0.32 -0.56,0.53 l -0.19,0.25 c -0.07,0.1 -0.14,0.22 -0.2,0.33 l -0.28,0.58 -0.24,0.64 -0.22,0.7 -0.2,0.79 -0.21,0.89 -0.2,0.97 -0.2,1.07 -0.2,1.15 -0.2,1.24 -0.2,1.33 -0.2,1.4 -0.2,1.48 -0.2,1.55 -0.21,1.62 -0.2,1.68 -0.2,1.74 -0.21,1.8 -0.2,1.85 -0.21,1.9 -0.41,3.92 -0.41,4.06 -0.42,4.17 -0.42,4.24 -0.42,4.29 -0.42,4.29 -0.43,4.26 -0.43,4.21 -0.43,4.11 -0.43,3.98 -0.21,1.93 -0.22,1.89 -0.21,1.83 -0.22,1.79 -0.22,1.72 -0.21,1.66 -0.22,1.6 -0.21,1.52 -0.22,1.45 -0.21,1.37 -0.22,1.28 -0.21,1.19 -0.21,1.09 -0.21,0.99 -0.21,0.87 -0.19,0.76 -0.19,0.62 -0.16,0.46 -0.11,0.28 -0.22,0.38 0.25,-0.34 -0.22,0.25 0.58,-0.48 -0.22,0.13 1.13,-0.3 h -0.22 l 1.07,0.28 -0.22,-0.13 0.57,0.45 -0.22,-0.24 0.25,0.33 -0.09,-0.13 -0.16,-0.3 -0.18,-0.46 -0.2,-0.58 -0.2,-0.7 -0.21,-0.81 -0.21,-0.9 -0.22,-1 -0.21,-1.09 -0.22,-1.17 -0.22,-1.25 -0.22,-1.32 -0.23,-1.39 -0.22,-1.45 -0.22,-1.52 -0.22,-1.57 -0.23,-1.63 -0.22,-1.67 -0.23,-1.72 -0.45,-3.56 -0.45,-3.7 -0.46,-3.79 -0.46,-3.87 -0.46,-3.91 -0.46,-3.92 -0.46,-3.9 -0.47,-3.85 -0.47,-3.77 -0.47,-3.66 -0.47,-3.51 -0.24,-1.7 -0.24,-1.65 -0.24,-1.6 -0.24,-1.54 -0.24,-1.5 -0.24,-1.43 -0.24,-1.36 -0.25,-1.3 -0.25,-1.24 -0.25,-1.16 -0.25,-1.08 -0.26,-1.01 -0.26,-0.94 -0.28,-0.86 -0.29,-0.79 -0.32,-0.74 -0.38,-0.69 -0.25,-0.36 c -0.08,-0.12 -0.16,-0.22 -0.26,-0.32 l -0.25,-0.25 c -0.16,-0.16 -0.34,-0.29 -0.53,-0.39 l -0.25,-0.14 c -0.28,-0.15 -0.58,-0.24 -0.89,-0.26 l -0.25,-0.02 c -0.32,-0.02 -0.63,0.02 -0.93,0.13 l -0.25,0.09 c -0.22,0.07 -0.43,0.19 -0.62,0.33 l -0.25,0.2 c -0.12,0.09 -0.24,0.2 -0.34,0.32 l -0.43,0.54 -0.36,0.57 -0.31,0.62 -0.3,0.68 -0.28,0.75 -0.27,0.81 -0.27,0.88 -0.27,0.95 -0.26,1.02 -0.27,1.08 -0.26,1.15 -0.26,1.2 -0.26,1.26 -0.26,1.32 -0.27,1.37 -0.26,1.41 -0.26,1.47 -0.53,3.04 -0.52,3.19 -0.53,3.3 -0.53,3.38 -0.53,3.45 -0.54,3.48 -0.53,3.48 -0.54,3.46 -0.54,3.42 -0.53,3.33 -0.54,3.23 -0.55,3.1 -0.27,1.49 -0.27,1.45 -0.27,1.4 -0.27,1.34 -0.27,1.3 -0.27,1.23 -0.27,1.17 -0.27,1.1 -0.26,1.03 -0.27,0.95 -0.26,0.87 -0.25,0.78 -0.25,0.68 -0.23,0.58 -0.21,0.46 -0.17,0.33 -0.1,0.18 -0.28,0.32 0.31,-0.29 -0.28,0.21 0.55,-0.31 -0.28,0.11 0.76,-0.15 -0.28,0.01 0.74,0.1 -0.28,-0.09 0.54,0.26 -0.28,-0.18 0.34,0.27 -0.07,-0.05 -0.16,-0.18 -0.2,-0.31 -0.23,-0.41 -0.25,-0.52 -0.25,-0.62 -0.27,-0.69 -0.27,-0.78 -0.27,-0.85 -0.28,-0.92 -0.27,-0.99 -0.28,-1.04 -0.29,-1.11 -0.28,-1.16 -0.28,-1.2 -0.58,-2.55 -0.57,-2.72 -0.58,-2.85 -0.59,-2.96 -0.58,-3.04 -0.59,-3.1 -0.59,-3.14 -1.19,-6.28 -0.59,-3.09 -0.6,-3.03 -0.61,-2.94 -0.6,-2.83 -0.61,-2.69 -0.31,-1.29 -0.3,-1.24 -0.31,-1.21 -0.31,-1.15 -0.32,-1.11 -0.31,-1.05 -0.32,-1 -0.33,-0.95 -0.32,-0.89 -0.34,-0.83 -0.35,-0.78 -0.37,-0.73 -0.4,-0.67 -0.45,-0.63 -0.52,-0.59 -0.31,-0.28 c -0.1,-0.09 -0.22,-0.18 -0.34,-0.25 l -0.31,-0.19 c -0.16,-0.1 -0.33,-0.17 -0.52,-0.23 l -0.3,-0.09 c -0.21,-0.06 -0.43,-0.1 -0.65,-0.1 h -0.31 c -0.21,0 -0.42,0.03 -0.62,0.09 l -0.31,0.09 c -0.16,0.05 -0.33,0.11 -0.48,0.2 l -0.31,0.17 c -0.12,0.07 -0.23,0.14 -0.33,0.23 l -0.53,0.46 -0.46,0.51 -0.41,0.55 -0.39,0.6 -0.36,0.65 -0.35,0.71 -0.35,0.76 -0.34,0.81 -0.33,0.86 -0.33,0.91 -0.33,0.96 -0.33,1.01 -0.33,1.05 -0.32,1.1 -0.33,1.15 -0.65,2.38 -0.65,2.52 -0.65,2.63 -0.65,2.72 -0.66,2.79 -0.65,2.83 -0.65,2.86 -1.3,5.71 -0.66,2.8 -0.65,2.73 -0.65,2.64 -0.65,2.53 -0.65,2.4 -0.65,2.25 -0.32,1.05 -0.32,0.99 -0.32,0.95 -0.32,0.89 -0.31,0.83 -0.3,0.76 -0.3,0.69 -0.29,0.62 -0.28,0.53 -0.26,0.44 -0.22,0.35 -0.19,0.25 -0.1,0.14 -0.33,0.26 0.32,-0.22 -0.33,0.18 0.46,-0.18 -0.33,0.09 0.56,-0.08 h -0.33 l 0.53,0.06 -0.33,-0.08 0.45,0.15 -0.33,-0.15 0.33,0.19 -0.09,-0.04 -0.16,-0.13 -0.21,-0.22 -0.25,-0.32 -0.27,-0.4 -0.28,-0.47 -0.29,-0.56 -0.31,-0.61 -0.3,-0.69 -0.32,-0.74 -0.31,-0.8 -0.32,-0.85 -0.32,-0.88 -0.65,-1.93 -0.65,-2.1 -0.65,-2.22 -0.66,-2.34 -0.67,-2.43 -0.66,-2.51 -0.67,-2.55 -0.66,-2.58 -1.35,-5.17 -0.67,-2.55 -0.68,-2.5 -0.68,-2.42 -0.69,-2.34 -0.69,-2.23 -0.7,-2.11 -0.7,-1.94 -0.35,-0.92 -0.36,-0.88 -0.37,-0.84 -0.37,-0.8 -0.38,-0.75 -0.4,-0.7 -0.41,-0.67 -0.43,-0.61 -0.47,-0.58 -0.52,-0.53 -0.59,-0.48 -0.35,-0.22 c -0.11,-0.07 -0.22,-0.13 -0.34,-0.18 l -0.34,-0.14 c -0.15,-0.06 -0.29,-0.11 -0.44,-0.14 l -0.35,-0.07 c -0.16,-0.03 -0.33,-0.04 -0.49,-0.04 l -0.35,0.01 c -0.16,0 -0.31,0.02 -0.47,0.06 l -0.34,0.08 c -0.14,0.03 -0.27,0.08 -0.39,0.13 l -0.35,0.16 c -0.11,0.04 -0.21,0.1 -0.31,0.16 l -0.57,0.39 -0.51,0.44 -0.47,0.49 -0.44,0.53 -0.42,0.58 -0.4,0.62 -0.39,0.66 -0.38,0.7 -0.37,0.74 -0.37,0.79 -0.38,0.84 -0.72,1.77 -0.72,1.9 -0.72,2.02 -0.71,2.13 -0.71,2.23 -0.71,2.29 -0.71,2.35 -1.43,4.79 -1.43,4.78 -0.71,2.34 -0.71,2.28 -0.72,2.2 -0.71,2.1 -0.71,1.98 -0.71,1.84 -0.71,1.69 -0.34,0.77 -0.35,0.71 -0.34,0.67 -0.33,0.6 -0.32,0.55 -0.31,0.47 -0.29,0.41 -0.26,0.33 -0.24,0.26 -0.18,0.18 -0.12,0.11 -0.38,0.19 0.33,-0.13 -0.38,0.12 0.39,-0.09 -0.37,0.05 0.42,-0.02 -0.38,-0.02 0.39,0.06 -0.38,-0.09 0.33,0.1 -0.11,-0.02 -0.18,-0.08 -0.22,-0.15 -0.27,-0.22 -0.29,-0.3 -0.32,-0.36 -0.34,-0.42 -0.34,-0.49 -0.36,-0.54 -0.36,-0.58 -0.76,-1.35 -0.77,-1.54 -0.79,-1.69 -0.8,-1.83 -0.8,-1.94 -0.82,-2.05 -0.81,-2.13 -0.82,-2.19 -1.64,-4.5 -1.65,-4.55 -0.83,-2.24 -0.82,-2.2 -0.83,-2.15 -0.82,-2.07 -0.83,-1.98 -0.83,-1.88 -0.83,-1.76 -0.83,-1.61 -0.42,-0.76 -0.43,-0.72 -0.43,-0.68 -0.44,-0.65 -0.46,-0.61 -0.47,-0.56 -0.5,-0.53 -0.53,-0.48 -0.58,-0.43 -0.63,-0.38 -0.37,-0.17 c -0.11,-0.04 -0.21,-0.08 -0.33,-0.11 l -0.37,-0.11 c -0.12,-0.03 -0.25,-0.06 -0.37,-0.07 l -0.74,-0.08 c -0.13,-0.01 -0.26,-0.01 -0.38,0 l -0.74,0.05 c -0.12,0 -0.24,0.02 -0.36,0.05 l -0.73,0.17 c -0.11,0.03 -0.22,0.06 -0.32,0.1 l -0.99,0.42 -0.93,0.54 -0.88,0.65 -0.84,0.74 -0.81,0.83 -0.78,0.92 -0.75,0.99 -0.75,1.08 -0.73,1.16 -0.72,1.23 -0.71,1.29 -0.7,1.37 -0.7,1.43 -0.69,1.49 -0.68,1.54 -0.68,1.61 -0.68,1.65 -0.67,1.69 -0.68,1.75 -1.33,3.58 -1.32,3.71 -1.32,3.8 -1.31,3.86 -2.03,6.02 z" /></g></g></g></g></g></g></svg>