<?xml version="1.0" encoding="UTF-8" standalone="no"?>
<svg
   xmlns:dc="http://purl.org/dc/elements/1.1/"
   xmlns:cc="http://creativecommons.org/ns#"
   xmlns:rdf="http://www.w3.org/1999/02/22-rdf-syntax-ns#"
   xmlns:svg="http://www.w3.org/2000/svg"
   xmlns="http://www.w3.org/2000/svg"
   viewBox="0 0 400 400"
   height="400"
   width="400"
   xml:space="preserve"
   id="svg2"
   version="1.1"><metadata
     id="metadata8"><rdf:RDF><cc:Work
         rdf:about=""><dc:format>image/svg+xml</dc:format><dc:type
           rdf:resource="http://purl.org/dc/dcmitype/StillImage" /></cc:Work></rdf:RDF></metadata><defs
     id="defs6"><clipPath
       id="clipPath18"
       clipPathUnits="userSpaceOnUse"><path
         id="path16"
         d="M 0,0 H 960 V 540 H 0 Z" /></clipPath><clipPath
       id="clipPath22"
       clipPathUnits="userSpaceOnUse"><path
         style="clip-rule:evenodd"
         id="path20"
         d="M 0,1.2207e-4 H 960 V 540.00012 H 0 Z" /></clipPath><clipPath
       id="clipPath26"
       clipPathUnits="userSpaceOnUse"><path
         style="clip-rule:evenodd"
         id="path24"
         d="M 0,1.2207e-4 H 960 V 540.00012 H 0 Z" /></clipPath><clipPath
       id="clipPath30"
       clipPathUnits="userSpaceOnUse"><path
         style="clip-rule:evenodd"
         id="path28"
         d="M -3.0518e-5,1.2207e-4 H 959.99997 V 540.00012 H -3.0518e-5 Z" /></clipPath><clipPath
       id="clipPath34"
       clipPathUnits="userSpaceOnUse"><path
         style="clip-rule:evenodd"
         id="path32"
         d="M -3.0518e-5,2.4414e-4 H 959.99997 V 540.00024 H -3.0518e-5 Z" /></clipPath><linearGradient
       id="linearGradient44"
       spreadMethod="pad"
       gradientTransform="translate(273,114)"
       gradientUnits="userSpaceOnUse"
       y2="191.07001"
       x2="566.58002"
       y1="191.07001"
       x1="276.72"><stop
         id="stop36"
         offset="0"
         style="stop-opacity:1;stop-color:#00b050" /><stop
         id="stop38"
         offset="0.3"
         style="stop-opacity:1;stop-color:#ffffff" /><stop
         id="stop40"
         offset="0.92"
         style="stop-opacity:1;stop-color:#ffffff" /><stop
         id="stop42"
         offset="1"
         style="stop-opacity:1;stop-color:#00b050" /></linearGradient></defs><g
     transform="matrix(1.3333333,0,0,-1.3333333,0,400)"
     id="g10"><g
       transform="translate(-273,-114)"
       id="g12"><g
         id="g14" /><g
         id="g72"><g
           id="g70"
           clip-path="url(#clipPath18)"><g
             id="g50"><g
               id="g48"
               clip-path="url(#clipPath22)"><path
                 id="path46"
                 style="fill:#ffffff;fill-opacity:1;fill-rule:evenodd;stroke:none"
                 d="M 0,6.1035e-5 H 960 V 540.00006 H 0 Z" /></g></g><g
             id="g56"><g
               id="g54"
               clip-path="url(#clipPath26)"><path
                 id="path52"
                 style="fill:#00b050;fill-opacity:1;fill-rule:evenodd;stroke:none"
                 d="m 273.6,363.3 c 0,27.5 22.3,49.8 49.8,49.8 h 199.2 c 27.5,0 49.8,-22.3 49.8,-49.8 V 164.1 c 0,-27.5 -22.3,-49.8 -49.8,-49.8 H 323.4 c -27.5,0 -49.8,22.3 -49.8,49.8 z" /></g></g><g
             id="g62"><g
               id="g60"
               clip-path="url(#clipPath30)"><path
                 id="path58"
                 style="fill:#ffffff;fill-opacity:1;fill-rule:nonzero;stroke:none"
                 d="m 394.35,292.3 c -7.01,-7.74 -14.11,-13.55 -21.3,-17.46 -7.19,-3.9 -15.55,-5.85 -25.09,-5.85 -10.48,0 -18.59,3.2 -24.34,9.59 -5.74,6.4 -8.62,15.31 -8.62,26.72 0,7.74 1.39,16.03 4.18,24.88 2.78,8.85 6.99,16.8 12.63,23.85 5.63,7.05 12.39,12.5 20.27,16.37 7.87,3.86 16.26,5.8 25.14,5.8 8.75,0 15.31,-1.77 19.68,-5.31 4.37,-3.55 6.56,-9.07 6.56,-16.59 0,-12.28 -5.77,-21.5 -17.29,-27.64 -11.53,-6.14 -28.64,-9.21 -51.33,-9.21 -0.87,-4.34 -1.3,-9.04 -1.3,-14.1 0,-7.58 1.48,-13.09 4.44,-16.53 2.97,-3.43 7.81,-5.15 14.53,-5.15 6.65,0 12.66,1.45 18.04,4.35 5.38,2.9 11.14,7.52 17.3,13.84 z" /></g></g></g></g></g></g></svg>
